<svg xmlns="http://www.w3.org/2000/svg" xmlns:xlink="http://www.w3.org/1999/xlink" version="1.1" x="0px" y="0px" width="100px" height="100px" viewBox="0 0 100 100" enable-background="new 0 0 100 100" xml:space="preserve">
<g id="Layer_1">
</g>
<g id="Layer_2">
	<g>
		<g>
			<path d="M67.572,28.785c-0.622,0-1.231,0.041-1.833,0.109c-2.423-8.417-10.163-14.58-19.357-14.58     c-11.131,0-20.156,9.024-20.156,20.156c0,0.931,0.085,1.841,0.208,2.74c-5.966,0.898-10.545,6.032-10.545,12.248     c0,6.85,5.554,12.403,12.404,12.403h39.279c9.133,0,16.539-7.405,16.539-16.538C84.111,36.19,76.705,28.785,67.572,28.785"/>
		</g>
	</g>
	<rect x="17.966" y="70.941" transform="matrix(0.5878 -0.809 0.809 0.5878 -48.5207 50.273)" width="14.213" height="3.618"/>
	<rect x="61.436" y="70.901" transform="matrix(0.5878 -0.809 0.809 0.5878 -30.5712 85.4163)" width="14.211" height="3.619"/>
	<rect x="23.281" y="73.853" transform="matrix(0.5879 -0.809 0.809 0.5879 -47.1398 58.796)" width="21.707" height="3.619"/>
	<rect x="36.917" y="73.049" transform="matrix(0.5878 -0.809 0.809 0.5878 -41.509 68.2499)" width="18.606" height="3.618"/>
	<rect x="45.405" y="73.824" transform="matrix(0.5878 -0.809 0.809 0.5878 -37.8916 76.903)" width="22.223" height="3.618"/>
</g>
</svg>