<svg xmlns:x="http://ns.adobe.com/Extensibility/1.0/" xmlns:i="http://ns.adobe.com/AdobeIllustrator/10.0/" xmlns:graph="http://ns.adobe.com/Graphs/1.0/" xmlns="http://www.w3.org/2000/svg" xmlns:xlink="http://www.w3.org/1999/xlink" version="1.1" x="0px" y="0px" width="100px" height="100px" viewBox="0 0 100 100" enable-background="new 0 0 100 100" xml:space="preserve">
<metadata>
	<sfw xmlns="http://ns.adobe.com/SaveForWeb/1.0/">
		<slices/>
		<sliceSourceBounds height="1780.628" width="870" bottomLeftOrigin="true" x="-192" y="-1744.628"/>
	</sfw>
</metadata>
<g id="Captions">
</g>
<g id="Your_Icon">
	<path fill="#000000" d="M45.235,87.389c0,0,0,0-0.002,0c-9.646,0-18.481-3.129-24.995-8.827c-1.141,0.27-2.297,0.407-3.448,0.407   c-4.713,0-8.687-2.234-10.631-5.979c-2.437-4.7-0.931-10.76,3.562-14.722c-1.67-15.718,7.964-31.79,24.216-40.213   c6.87-3.559,14.417-5.443,21.823-5.443c9.812,0,18.759,3.227,25.301,9.103c5.444-0.793,10.529,1.517,12.762,5.826   c2.259,4.354,1.205,9.801-2.596,13.787c1.838,15.629-7.997,32.237-24.167,40.622C60.188,85.507,52.642,87.389,45.235,87.389z    M19.957,75.856c0.4,0,0.793,0.146,1.094,0.426c6.124,5.663,14.675,8.781,24.069,8.781c0.005,0,0.005,0,0.005,0   c7.069,0,14.28-1.801,20.858-5.209c15.64-8.105,25.075-24.178,22.939-39.083c-0.072-0.517,0.109-1.034,0.487-1.394   c3.313-3.127,4.359-7.503,2.601-10.89c-1.736-3.349-5.993-5.047-10.398-4.152c-0.512,0.108-1.043-0.047-1.422-0.407   c-6.146-5.796-14.774-8.992-24.293-8.992c-7.074,0-14.285,1.803-20.863,5.216c-15.498,8.028-24.948,23.979-22.979,38.779   c0.07,0.561-0.155,1.123-0.603,1.476c-3.925,3.071-5.391,7.971-3.481,11.647c1.883,3.639,6.783,5.284,11.527,3.869   C19.646,75.879,19.806,75.856,19.957,75.856z"/>
	<path fill="#000000" d="M31.748,28.768c0,0-19.636,8.236-15.37,25.142C19.077,64.604,15.288,44.204,31.748,28.768z"/>
</g>
</svg>