<svg xmlns="http://www.w3.org/2000/svg" xmlns:xlink="http://www.w3.org/1999/xlink" version="1.0" id="Layer_1" x="0px" y="0px" width="50px" height="50px" viewBox="0 0 50 50" enable-background="new 0 0 50 50" xml:space="preserve">
<g>
	<path fill="#000000" d="M38.143,45.634c-1.189,0.27-2.441,0.419-3.752,0.419c-7.049,0-14.778-3.888-20.671-10.401   c-7.145-7.895-9.844-17.79-7.562-25.078C0.787,17.478-0.332,26.715,2.97,34.619c0.28,1.86,0.844,6.241,0.179,7.703   c0,0,3.433-0.06,6.5,1.392C17.701,50.534,29.299,51.296,38.143,45.634z"/>
	<g>
		<path fill="#000000" d="M28.652,41.906l0.357,0.104c1.787,0.52,3.535,0.784,5.195,0.784c2.053,0,3.934-0.411,5.594-1.223    c0.553-0.272,1.115-0.625,1.717-1.078l0.393-0.295L29.506,25.027L28.652,41.906z"/>
		<path fill="#000000" d="M9.262,20.683l0.172,0.685c0.905,3.605,2.729,7.229,5.278,10.483l0.297,0.379l10.935-9.013L9.262,20.683z"/>
		<path fill="#000000" d="M20.501,4.281c-1.436,0-2.815,0.21-4.1,0.623l-0.655,0.213l12.064,14.756l0.695-13.786l-0.303-0.128    C25.566,4.846,22.975,4.281,20.501,4.281z"/>
		<path fill="#000000" d="M13.966,6.02L13.61,6.261c-0.441,0.301-0.796,0.574-1.112,0.861c-0.67,0.604-1.255,1.306-1.788,2.145    c-1.535,2.405-2.163,5.527-1.814,9.028l0.035,0.364l17.546,2.665L13.966,6.02z"/>
		<path fill="#000000" d="M37.848,12.751c-2.072-2.162-4.352-3.967-6.77-5.362l-0.666-0.385l-0.66,13.074l8.445-6.961L37.848,12.751    z"/>
		<path fill="#000000" d="M45.748,28.185c-0.064-0.502-0.162-1.042-0.299-1.697l-0.068-0.318l-14.182-2.154l12.088,14.789    l0.357-0.497C45.541,35.674,46.268,32.174,45.748,28.185z"/>
		<path fill="#000000" d="M44.813,24.108l-0.266-0.741c-1.061-2.957-2.664-5.786-4.766-8.408l-0.297-0.372l-8.928,7.356    L44.813,24.108z"/>
		<path fill="#000000" d="M16.624,34.077c2.813,2.995,6.093,5.372,9.484,6.875l0.625,0.277l0.85-16.835L16.28,33.711L16.624,34.077z    "/>
	</g>
	<path fill="#000000" d="M34.334,46.435c-7.115,0-14.917-3.844-20.868-10.283C3.732,25.615,1.947,11.376,9.486,4.407   c2.701-2.496,6.32-3.815,10.466-3.815c7.116,0,14.917,3.845,20.866,10.284C50.555,21.409,52.341,35.65,44.8,42.62   C42.098,45.116,38.479,46.435,34.334,46.435z M19.953,2.225c-3.728,0-6.964,1.17-9.358,3.382   c-6.878,6.357-5.052,19.563,4.071,29.436c5.648,6.111,13,9.76,19.668,9.76c3.728,0,6.963-1.169,9.357-3.381   c6.879-6.358,5.053-19.564-4.072-29.437C33.973,5.873,26.621,2.225,19.953,2.225z"/>
</g>
</svg>