<svg xmlns="http://www.w3.org/2000/svg" xmlns:xlink="http://www.w3.org/1999/xlink" version="1.1" x="0px" y="0px" width="100px" height="100px" viewBox="0 0 100 100" enable-background="new 0 0 100 100" xml:space="preserve">
<g id="Captions">
</g>
<g id="Your_Icon">
	<g>
		<polygon points="32.621,19.214 33.083,39.583 60.167,12.5 41.185,10.648   "/>
		<polygon points="35.333,21.468 24.571,12.5 6,12.5 6,0 29.096,0 43.333,11.865   "/>
		<path d="M6,100V6.25C6,2.797,8.798,0,12.25,0s6.25,2.797,6.25,6.25V100"/>
		<circle cx="46.625" cy="40.625" r="5.209"/>
		<circle cx="59.125" cy="28.125" r="5.208"/>
		<circle cx="75.792" cy="36.458" r="5.208"/>
		<circle cx="61.208" cy="46.875" r="5.208"/>
		<circle cx="46.625" cy="55.208" r="5.209"/>
		<circle cx="75.792" cy="53.125" r="5.208"/>
		<circle cx="88.292" cy="63.542" r="5.208"/>
		<circle cx="73.708" cy="71.875" r="5.208"/>
		<circle cx="59.125" cy="82.292" r="5.208"/>
		<circle cx="73.708" cy="88.542" r="5.208"/>
		<circle cx="88.292" cy="80.208" r="5.208"/>
		<circle cx="61.208" cy="63.542" r="5.208"/>
		<circle cx="46.625" cy="71.875" r="5.209"/>
		<path d="M37.773,38.229c-2.408,2.285-5.643,2.783-7.227,1.113l0,0c-1.584-1.668-0.917-4.873,1.491-7.158L56.012,9.436    c2.405-2.287,5.645-2.785,7.227-1.115l0,0c1.583,1.668,0.916,4.876-1.491,7.159L37.773,38.229z"/>
	</g>
</g>
</svg>