<svg xmlns="http://www.w3.org/2000/svg" xmlns:xlink="http://www.w3.org/1999/xlink" version="1.1" id="&#1057;&#1083;&#1086;&#1081;_1" x="0px" y="0px" viewBox="0 0 100 100" enable-background="new 0 0 100 100" xml:space="preserve" height="100px" width="100px">
<path d="M76.3,5H23.8C13.2,5,5,18.2,5,35v57.5C5,93.9,6.1,95,7.5,95s2.5-1.1,2.5-2.5V35c0-13.6,6.3-25,13.8-25h42  c-5,5.3-8.3,14.4-8.3,25v57.5c0,1.4,1.1,2.5,2.5,2.5s2.5-1.1,2.5-2.5V65h15c0.4,0,0.7-0.1,1-0.2C87.9,63.1,95,50.6,95,35  C95,18.2,86.8,5,76.3,5z M62.5,60v-4.4c1,1.7,2.1,3.2,3.3,4.4H62.5z M76.3,60c-7.5,0-13.8-11.4-13.8-25s6.3-25,13.8-25  S90,21.4,90,35S83.7,60,76.3,60z"/>
<path d="M76.3,25c-4,0-6.9,4.3-6.9,10s3,10,6.9,10s6.9-4.3,6.9-10S80.2,25,76.3,25z M76.3,40c-0.5,0-1.9-1.8-1.9-5s1.5-5,1.9-5  s1.9,1.8,1.9,5S76.7,40,76.3,40z"/>
<circle cx="15" cy="92.5" r="2.5"/>
<circle cx="22.5" cy="92.5" r="2.5"/>
<circle cx="30" cy="92.5" r="2.5"/>
<circle cx="37.5" cy="92.5" r="2.5"/>
<circle cx="45" cy="92.5" r="2.5"/>
<circle cx="52.5" cy="92.5" r="2.5"/>
<circle cx="15" cy="50" r="2.5"/>
<circle cx="22.5" cy="50" r="2.5"/>
<circle cx="30" cy="50" r="2.5"/>
<circle cx="37.5" cy="50" r="2.5"/>
<circle cx="45" cy="50" r="2.5"/>
<circle cx="52.5" cy="50" r="2.5"/>
</svg>