<svg xmlns="http://www.w3.org/2000/svg" xmlns:xlink="http://www.w3.org/1999/xlink" version="1.1" id="Your_Icon" x="0px" y="0px" viewBox="0 0 100 100" enable-background="new 0 0 100 100" xml:space="preserve" height="100px" width="100px">
<g>
	<path d="M84.58,56.655c-4.551-18.962-21.031-28.04-36.442-28.04c-15.627,0-32.499,9.272-36.64,28.834   C51.642,71.258,84.057,56.858,84.58,56.655z"/>
	<path d="M94.065,57.313c-1.004-1.287-5.72-0.173-8.849,0.767c-0.008-0.038-0.019-0.075-0.027-0.113   c-0.514,0.218-1.212,0.514-2.09,0.886c-0.977,0.413-2.194,0.835-3.575,1.362c-1.394,0.487-2.979,1.013-4.727,1.514   c-0.877,0.243-1.791,0.495-2.736,0.757c-0.955,0.225-1.942,0.457-2.957,0.695c-2.037,0.445-4.201,0.847-6.454,1.167   c-2.251,0.331-4.59,0.581-6.971,0.762c-1.19,0.103-2.394,0.135-3.6,0.207c-1.208,0.036-2.421,0.049-3.634,0.063   c-2.425-0.02-4.851-0.077-7.232-0.248c-2.383-0.139-4.719-0.398-6.975-0.668c-4.506-0.597-8.671-1.422-12.201-2.277   c-3.53-0.867-6.423-1.771-8.429-2.46c-1.433-0.489-2.409-0.868-2.855-1.047L5,59c0,0,2.595,1.918,4.165,2.749   c0.58,0.307,1.478,0.711,2.291,1.063c1.001,0.675,2.74,1.301,5.04,1.863c-0.295,0.572-0.478,1.211-0.478,1.896v0.381   c0,2.299,1.881,4.18,4.18,4.18h2.931c2.299,0,4.18-1.881,4.18-4.18v-0.381c0-0.04-0.011-0.077-0.012-0.116   c6.764,0.765,14.776,1.204,22.479,1.204c3.24,0,7.14-0.145,11.157-0.45c-0.001,0.041-0.012,0.08-0.012,0.122v0.218   c0,2.111,1.727,3.837,3.837,3.837h2.864c2.111,0,3.837-1.727,3.837-3.837V67.33c0-0.449-0.093-0.875-0.236-1.277   c1.037-0.161,2.045-0.336,3.02-0.524c5.474,1.882,14.048,2.885,19.006-1.606C95.15,62.2,95.627,59.316,94.065,57.313z    M90.063,61.736c-0.651,0-1.179-0.528-1.179-1.179c0-0.651,0.528-1.179,1.179-1.179c0.651,0,1.179,0.528,1.179,1.179   C91.242,61.208,90.714,61.736,90.063,61.736z"/>
</g>
</svg>